HIERARCHY
ROOT pelvis
{
	OFFSET 0.000000 0.000000 0.727022
	CHANNELS 6 Xposition Yposition Zposition Xrotation Yrotation Zrotation
	JOINT spine
	{
		OFFSET 0.000000 0.000000 0.000000
		CHANNELS 6 Xposition Yposition Zposition Xrotation Yrotation Zrotation
		JOINT spine.001
		{
			OFFSET 0.000000 -0.010851 0.207059
			CHANNELS 3 Xrotation Yrotation Zrotation
			JOINT neck
			{
				OFFSET 0.000000 0.025269 0.205797
				CHANNELS 6 Xposition Yposition Zposition Xrotation Yrotation Zrotation
				JOINT face
				{
					OFFSET 0.000000 0.002789 0.159761
					CHANNELS 6 Xposition Yposition Zposition Xrotation Yrotation Zrotation
					End Site
					{
						OFFSET 0.000000 -0.017303 -0.006953
					}
				}
			}
			JOINT shoulder.L
			{
				OFFSET 0.000000 0.025269 0.205797
				CHANNELS 6 Xposition Yposition Zposition Yrotation Xrotation Zrotation
				JOINT upper_arm.L
				{
					OFFSET 0.137806 0.000000 0.000000
					CHANNELS 6 Xposition Yposition Zposition Xrotation Yrotation Zrotation
					JOINT forearm.L
					{
						OFFSET 0.219414 0.000101 0.000841
						CHANNELS 6 Xposition Yposition Zposition Xrotation Yrotation Zrotation
						End Site
						{
							OFFSET 0.205039 -0.003486 -0.001158
						}
					}
				}
			}
			JOINT shoulder.R
			{
				OFFSET 0.000000 0.025269 0.205797
				CHANNELS 6 Xposition Yposition Zposition Yrotation Xrotation Zrotation
				JOINT upper_arm.R
				{
					OFFSET -0.137806 0.000000 0.000000
					CHANNELS 6 Xposition Yposition Zposition Xrotation Yrotation Zrotation
					JOINT forearm.R
					{
						OFFSET -0.215908 0.000101 0.000841
						CHANNELS 6 Xposition Yposition Zposition Xrotation Yrotation Zrotation
						End Site
						{
							OFFSET -0.209494 -0.003564 -0.001159
						}
					}
				}
			}
		}
	}
	JOINT pelvis.L
	{
		OFFSET 0.000000 0.000000 0.000000
		CHANNELS 6 Xposition Yposition Zposition Yrotation Xrotation Zrotation
		End Site
		{
			OFFSET 0.089911 0.000000 0.000000
		}
	}
	JOINT pelvis.R
	{
		OFFSET 0.000000 0.000000 0.000000
		CHANNELS 6 Xposition Yposition Zposition Yrotation Xrotation Zrotation
		End Site
		{
			OFFSET -0.089911 0.000000 0.000000
		}
	}
	JOINT thigh.L
	{
		OFFSET 0.089911 0.000000 0.000000
		CHANNELS 6 Xposition Yposition Zposition Xrotation Yrotation Zrotation
		JOINT shin.L
		{
			OFFSET 0.019079 0.000000 -0.364056
			CHANNELS 6 Xposition Yposition Zposition Xrotation Yrotation Zrotation
			JOINT foot.L
			{
				OFFSET 0.016153 0.000000 -0.308217
				CHANNELS 3 Xrotation Yrotation Zrotation
				End Site
				{
					OFFSET 0.012549 -0.127950 -0.053728
				}
			}
			JOINT heel.02.L
			{
				OFFSET 0.016153 0.000000 -0.308217
				CHANNELS 3 Xrotation Yrotation Zrotation
				End Site
				{
					OFFSET 0.075427 0.030244 -0.049948
				}
			}
		}
	}
	JOINT thigh.R
	{
		OFFSET -0.089911 0.000000 0.000000
		CHANNELS 6 Xposition Yposition Zposition Xrotation Yrotation Zrotation
		JOINT shin.R
		{
			OFFSET -0.019310 0.000000 -0.368456
			CHANNELS 6 Xposition Yposition Zposition Xrotation Yrotation Zrotation
			JOINT foot.R
			{
				OFFSET -0.015935 0.000000 -0.304053
				CHANNELS 3 Xrotation Yrotation Zrotation
				End Site
				{
					OFFSET -0.012210 -0.124494 -0.052277
				}
			}
			JOINT heel.02.R
			{
				OFFSET -0.015935 0.000000 -0.304053
				CHANNELS 3 Xrotation Yrotation Zrotation
				End Site
				{
					OFFSET -0.073605 0.030244 -0.049807
				}
			}
		}
	}
}
MOTION
Frames: 4
Frame Time: 0.041667
-0.008965 -0.032042 0.724264 -0.000000 0.000000 -4.493864 -0.000000 0.000000 -0.000000 -3.663307 0.651768 0.055095 9.997946 -0.171019 -1.392955 -0.000000 0.025269 0.205797 12.460376 -1.976540 14.671456 -0.000000 0.002789 0.159760 1.307774 0.000001 -0.000001 -0.000000 0.025269 0.205798 -3.940131 0.016628 0.483402 0.137806 -0.000000 -0.000000 12.008121 77.212201 -15.034942 0.219414 0.000101 0.000841 26.174735 38.216333 -66.524451 -0.000000 0.025269 0.205798 -3.885713 0.016173 0.476735 -0.137807 0.000000 -0.000000 8.202651 -76.619662 10.406611 -0.215908 0.000101 0.000841 24.049448 -34.454527 67.873926 -0.000000 0.000000 0.000000 -0.517030 -0.000000 0.000049 0.000000 0.000000 0.000000 -0.517068 0.000000 0.000000 0.089908 -0.000000 0.000811 8.110261 5.688182 0.022221 0.019079 0.000000 -0.364056 -4.806158 -7.690513 -0.573231 2.585793 1.308450 -2.693059 -12.473157 44.370972 43.372941 -0.089908 0.000000 -0.000811 8.291191 -4.976855 -0.074498 -0.019310 -0.000000 -0.368456 -5.830263 5.641551 0.591795 -1.519328 -2.631877 6.413706 -18.453918 -48.992821 -51.771973 
-0.008794 -0.031098 0.725405 -0.000000 0.000000 -4.828883 -0.000000 0.000000 -0.000000 -3.774952 0.536668 0.045890 9.998871 -0.122121 -0.994648 -0.000000 0.025269 0.205797 12.902542 -1.370490 13.947514 0.000000 0.002789 0.159761 0.299191 0.000001 -0.000000 -0.000000 0.025269 0.205797 -3.429049 0.012594 0.420731 0.137807 -0.000000 0.000000 7.422394 77.932916 -9.207927 0.219414 0.000101 0.000841 25.901431 37.181299 -67.552743 -0.000000 0.025269 0.205797 -3.374580 0.012198 0.414056 -0.137806 0.000000 -0.000000 13.243640 -76.396383 16.807576 -0.215908 0.000101 0.000841 23.872329 -35.003015 66.548637 -0.000000 0.000000 0.000000 -0.491808 -0.000000 0.000054 -0.000000 0.000000 0.000000 -0.491808 0.000000 0.000000 0.089908 0.000000 0.000772 8.118172 5.847996 0.010845 0.019079 0.000000 -0.364056 -5.008399 -7.988500 -0.610347 2.046295 0.978521 -1.956757 -12.845810 44.534876 43.172369 -0.089908 -0.000000 -0.000772 8.049421 -4.752364 -0.088168 -0.019310 0.000000 -0.368456 -5.894389 5.376920 0.584767 -0.206267 -2.988687 7.165354 -16.931066 -47.894485 -49.152490 
-0.008669 -0.030506 0.726101 -0.000000 0.000000 -5.012205 -0.000000 -0.000000 -0.000000 -3.857657 0.469499 0.040488 9.999296 -0.097040 -0.790352 -0.000000 0.025269 0.205797 13.257171 -0.900291 13.249843 -0.000000 0.002789 0.159760 -0.417262 0.000000 -0.000003 -0.000000 0.025269 0.205797 -3.104084 0.010320 0.380870 0.137807 -0.000000 -0.000000 4.211364 78.259795 -5.219912 0.219414 0.000101 0.000841 25.891333 36.634147 -68.403163 -0.000000 0.025269 0.205797 -3.049661 0.009963 0.374228 -0.137806 0.000000 0.000000 16.411561 -76.265810 20.832736 -0.215908 0.000101 0.000841 23.706972 -35.234531 65.787344 -0.000000 -0.000000 0.000000 -0.465409 -0.000000 0.000007 -0.000000 -0.000000 0.000000 -0.465447 0.000000 0.000000 0.089908 -0.000000 0.000730 8.136941 5.975905 0.001722 0.019079 0.000000 -0.364056 -5.160266 -8.240587 -0.640179 1.616231 0.778032 -1.540408 -13.031475 44.590552 42.960558 -0.089908 -0.000000 -0.000730 7.898176 -4.599445 -0.097098 -0.019310 0.000000 -0.368456 -5.968135 5.187608 0.582281 0.768724 -3.222898 7.681106 -15.774409 -47.037785 -47.440213 
-0.008594 -0.030298 0.726305 -0.000000 0.000000 -5.038669 -0.000000 -0.000000 0.000000 -3.894243 0.455012 0.039385 9.999225 -0.101009 -0.822684 -0.000000 0.025269 0.205797 13.480411 -0.574878 12.643015 0.000000 0.002789 0.159761 -0.814970 -0.000000 -0.000001 0.000000 0.025269 0.205798 -2.994068 0.009605 0.367495 0.137807 -0.000000 -0.000000 4.149306 78.353867 -5.135353 0.219414 0.000101 0.000841 25.698942 36.354139 -68.438598 -0.000000 0.025269 0.205798 -2.939705 0.009258 0.360767 -0.137806 -0.000000 0.000000 18.603782 -76.091886 23.651729 -0.215908 0.000101 0.000841 23.426191 -35.202102 65.191451 -0.000000 -0.000000 0.000000 -0.448544 -0.000000 -0.000080 -0.000000 -0.000000 0.000000 -0.448544 0.000000 0.000001 0.089909 -0.000000 0.000704 8.175870 6.067735 -0.004867 0.019079 0.000000 -0.364056 -5.269297 -8.436697 -0.662702 1.325462 0.713114 -1.438558 -13.043120 44.558576 42.796039 -0.089909 -0.000000 -0.000704 7.846553 -4.525306 -0.101561 -0.019310 0.000000 -0.368456 -6.048261 5.085201 0.584732 1.329312 -3.330486 7.922132 -15.029324 -46.532689 -46.719532 
